<svg xmlns="http://www.w3.org/2000/svg" viewBox="0 4.5 35 35" width="35px" height="35px">
  <defs>
    <clipPath id="clip0_9988_81">
      <rect width="35" height="35" fill="white" transform="translate(0 4.5)"/>
    </clipPath>
  </defs>
  <g clip-path="url(#clip0_9988_81)" transform="matrix(1, 0, 0, 1, 0, -3.552713678800501e-15)">
    <path d="M19.0191 4.5C16.5213 4.5 14.048 4.99201 11.7404 5.94793C9.43273 6.90385 7.33599 8.30495 5.56988 10.0712C3.80377 11.8375 2.40287 13.9344 1.44719 16.2421C0.491499 18.5499 -0.00025292 21.0232 9.75874e-08 23.521V39.5019H15.979C21.0237 39.5019 25.8617 37.4979 29.4289 33.9308C32.996 30.3637 35 25.5256 35 20.4809V4.5H19.0191ZM25.5309 24.6172H20.1153V30.0348H14.8827V24.6172H9.46716V19.3847H14.8827V13.9691H20.1153V19.3847H25.5213L25.5309 24.6172Z" fill="#185EC8"/>
    <path opacity="0.3" d="M9.8711e-08 23.521V39.5019L14.8827 24.6172H9.46716V19.3847H14.8827V13.9691H20.1153V19.375L34.9904 4.5H18.9998C13.9587 4.50511 9.12573 6.51141 5.56307 10.078C2.00041 13.6447 -0.000513142 18.4798 9.8711e-08 23.521Z" fill="white"/>
  </g>
</svg>